<svg width="1641" height="1072" viewBox="0 0 1641 1072" fill="none" xmlns="http://www.w3.org/2000/svg">
<path d="M820.785 1071.45C1273.66 1071.45 1640.79 1028.68 1640.79 975.915C1640.79 923.152 1273.66 880.38 820.785 880.38C367.91 880.38 0.782227 923.152 0.782227 975.915C0.782227 1028.68 367.91 1071.45 820.785 1071.45Z" fill="#C8C1E1"/>
<g opacity="0.5">
<path d="M558.161 204.149C559.833 167.464 592.299 136.446 628.484 136.446C679.746 136.446 696.561 176.305 698.581 212.972C700.681 251.057 667.606 277.12 631.424 277.12C595.24 277.12 556.085 249.724 558.161 204.149Z" fill="#786AB5"/>
<path d="M570.879 207.99C570.879 178.776 599.61 147.655 628.38 146.719C670.938 145.337 688.199 189.161 688.199 218.375C688.199 247.587 658.488 265.003 629.705 265.003C600.922 265.003 570.879 237.203 570.879 207.99Z" fill="white"/>
<path d="M622.215 207.003C622.601 203.014 626.778 200.357 630.726 200.357C634.675 200.357 638.912 205.185 638.912 209.193C638.912 213.201 634.675 216.474 630.726 216.474C626.779 216.473 621.5 214.396 622.215 207.003Z" fill="#786AB5"/>
<path d="M630.726 210.658H632.156C632.94 210.658 633.575 210.014 633.575 209.218C633.575 208.422 635.363 205.722 634.578 205.722L633.783 204.027L632.079 164.567L633.849 165.67C634.298 166.326 635.182 166.483 635.823 166.037C636.465 165.586 636.628 164.688 636.182 164.035L631.816 157.608C631.463 157.088 630.82 156.862 630.224 157.052C629.631 157.239 629.23 157.797 629.23 158.428L626.865 209.11C626.866 209.905 629.946 210.658 630.726 210.658Z" fill="#786AB5"/>
<path d="M625.825 165.877C626.235 165.877 626.646 165.696 626.926 165.347L632.314 161.432C632.809 160.814 632.154 157.811 631.544 157.309C630.94 156.809 630.044 156.899 629.55 157.517L624.726 163.528C624.229 164.146 624.321 165.052 624.931 165.555C625.194 165.771 625.509 165.877 625.825 165.877Z" fill="#786AB5"/>
<path d="M656.438 215.322C656.808 215.322 657.18 215.174 657.458 214.882L661.671 210.451C662.067 210.035 662.182 209.42 661.957 208.887C661.736 208.356 661.22 208.012 660.653 208.012H660.649L627.166 206.226C626.385 206.228 625.938 208.734 625.938 209.528V210.98C625.938 211.776 626.573 212.419 627.357 212.419C628.142 212.419 629.908 213.134 629.908 212.339L628.776 210.966L657.301 210.9L655.417 212.883C654.872 213.455 654.887 214.366 655.45 214.919C655.727 215.19 656.081 215.322 656.438 215.322Z" fill="#786AB5"/>
<path d="M660.651 210.892C660.965 210.892 661.286 210.785 661.549 210.567C662.156 210.063 662.245 209.156 661.752 208.54L657.811 203.643C657.309 203.026 656.418 202.938 655.814 203.439C655.207 203.942 655.119 204.849 655.612 205.465L657.16 209.132C657.441 209.48 660.241 210.892 660.651 210.892Z" fill="#786AB5"/>
</g>
<path d="M1356.34 1000.36C1357.27 1000.36 1358.22 1000.21 1359.15 999.878C1363.55 998.326 1365.86 993.501 1364.31 989.103L1203.94 534.506C1202.39 530.106 1197.56 527.797 1193.16 529.35C1188.76 530.902 1186.45 535.726 1188.01 540.126L1348.38 994.722C1349.6 998.193 1352.86 1000.36 1356.34 1000.36Z" fill="#786AB5"/>
<path d="M1574.31 1000.36C1575.24 1000.36 1576.19 1000.21 1577.12 999.878C1581.52 998.326 1583.83 993.501 1582.28 989.103L1421.91 534.506C1420.36 530.106 1415.53 527.797 1411.13 529.35C1406.73 530.902 1404.43 535.726 1405.98 540.126L1566.35 994.722C1567.57 998.193 1570.83 1000.36 1574.31 1000.36Z" fill="#786AB5"/>
<path d="M1306.44 850.454L1524.4 850.422L1530.44 867.55L1311.55 864.946L1306.44 850.454Z" fill="#786AB5"/>
<path d="M1244.34 690.422L1462.3 690.391L1468.34 707.518L1249.45 704.913L1244.34 690.422Z" fill="#786AB5"/>
<path d="M1213.38 583.047L1431.34 583.015L1437.38 600.143L1218.49 597.538L1213.38 583.047Z" fill="#786AB5"/>
<path d="M1240.61 972.381C1244.35 972.381 1247.76 969.882 1248.77 966.098L1294.2 794.771C1295.39 790.261 1292.71 785.637 1288.2 784.441C1283.69 783.246 1279.06 785.931 1277.87 790.441L1232.44 961.768C1231.24 966.278 1233.93 970.901 1238.44 972.098C1239.16 972.29 1239.89 972.381 1240.61 972.381Z" fill="#786AB5"/>
<path d="M796.711 0.578003H1246.04C1261.14 0.578003 1273.38 12.82 1273.38 27.921V109.484C1273.38 154.909 1236.56 191.734 1191.13 191.734H796.71C781.609 191.734 769.368 179.493 769.368 164.392V27.92C769.368 12.819 781.61 0.578003 796.711 0.578003Z" fill="#786AB5"/>
<path d="M1233.15 145.854C1236.51 145.854 1238.26 149.915 1235.98 152.415C1220.69 169.172 1198.88 179.702 1174.6 179.702H867.397C855.58 179.702 846 169.979 846 157.984V149.756C846 147.601 847.721 145.854 849.845 145.854H1233.15Z" fill="#552748"/>
<path d="M852.923 125.069H1246.56C1247.89 125.069 1248.96 123.978 1248.96 122.63C1248.96 121.281 1247.89 120.19 1246.56 120.19H852.923C851.595 120.19 850.52 121.281 850.52 122.63C850.52 123.978 851.595 125.069 852.923 125.069Z" fill="#552748"/>
<path d="M852.923 106.629H1246.56C1247.89 106.629 1248.96 105.537 1248.96 104.19C1248.96 102.842 1247.89 101.751 1246.56 101.751H852.923C851.595 101.751 850.52 102.842 850.52 104.19C850.52 105.536 851.595 106.629 852.923 106.629Z" fill="#552748"/>
<path d="M852.921 18.139C852.921 14.017 856.213 10.675 860.274 10.675C864.336 10.675 867.628 14.017 867.628 18.139C867.628 22.261 864.336 25.6031 860.274 25.6031C856.213 25.6031 852.921 22.261 852.921 18.139Z" fill="#FFBA41"/>
<path d="M881.471 18.139C881.471 14.017 884.764 10.675 888.824 10.675C892.886 10.675 896.179 14.017 896.179 18.139C896.179 22.261 892.886 25.6031 888.824 25.6031C884.764 25.6031 881.471 22.261 881.471 18.139Z" fill="#FF443C"/>
<path d="M1525.41 476.162C1527.58 475.984 1529.5 477.637 1529.67 479.84L1532.42 514.017C1532.59 516.218 1530.96 518.166 1528.79 518.345C1526.62 518.525 1524.7 516.87 1524.53 514.668L1521.78 480.491C1521.61 478.291 1523.24 476.341 1525.41 476.162Z" fill="#FDAD9B"/>
<path d="M1515.31 476.997C1517.48 476.818 1519.4 478.473 1519.58 480.675L1522.64 518.896C1522.82 521.099 1521.19 523.046 1519.02 523.227C1516.85 523.406 1514.93 521.751 1514.76 519.549L1511.69 481.328C1511.51 479.124 1513.14 477.177 1515.31 476.997Z" fill="#FDAD9B"/>
<path d="M1511 457.329L1512.17 458.125C1514.35 459.613 1514.94 462.646 1513.48 464.864L1499.2 486.474C1497.73 488.692 1494.74 489.29 1492.56 487.801L1491.39 487.004C1489.2 485.517 1488.61 482.484 1490.08 480.267L1504.36 458.657C1505.83 456.44 1508.81 455.842 1511 457.329Z" fill="#FDAD9B"/>
<path d="M1505.21 477.833C1507.38 477.654 1509.3 479.309 1509.48 481.51L1511.94 512.148C1512.11 514.35 1510.48 516.298 1508.32 516.478C1506.15 516.656 1504.23 515.002 1504.05 512.801L1501.59 482.162C1501.41 479.96 1503.04 478.012 1505.21 477.833Z" fill="#FDAD9B"/>
<path d="M1530.7 456.131C1530.7 456.131 1543.7 474.916 1539.05 490.528C1537.44 495.932 1507.64 497.561 1504.47 492.12C1501.29 486.681 1501.61 465.824 1501.61 465.824L1530.7 456.131Z" fill="#FDAD9B"/>
<path d="M1535.43 475.304C1537.6 475.124 1539.51 476.776 1539.69 478.973L1542.14 509.548C1542.32 511.745 1540.69 513.689 1538.53 513.868C1536.36 514.046 1534.45 512.395 1534.27 510.198L1531.82 479.623C1531.64 477.425 1533.27 475.481 1535.43 475.304Z" fill="#FDAD9B"/>
<path d="M1496.57 470.193C1481.26 428.174 1456.05 369.011 1422.84 325.782C1415.14 315.766 1412.06 312.057 1406.76 306.888C1402.5 302.729 1404.87 290.372 1411.8 282.891C1418.3 275.87 1430.67 273.342 1433.23 275.234C1437.6 278.45 1443.18 285.372 1451.93 296.393C1482.35 334.687 1508.57 387.732 1532.39 458.857L1496.57 470.193Z" fill="#FDAD9B"/>
<g opacity="0.5">
<path d="M1477.55 370.232C1475.38 369.418 1473.37 367.356 1472.19 364.717C1470.19 360.264 1471.1 355.469 1474.23 354.027C1475.41 353.478 1476.78 353.463 1478.17 353.984C1480.34 354.798 1482.35 356.861 1483.53 359.5C1485.53 363.953 1484.61 368.748 1481.49 370.189C1480.88 370.471 1480.22 370.612 1479.54 370.612C1478.9 370.612 1478.23 370.485 1477.55 370.232ZM1474.92 355.531C1472.66 356.575 1472.1 360.471 1473.7 364.039C1474.71 366.283 1476.36 368.018 1478.13 368.68C1479.1 369.042 1480.02 369.044 1480.8 368.685C1483.06 367.641 1483.62 363.745 1482.02 360.177C1481.01 357.933 1479.35 356.198 1477.59 355.534C1477.1 355.353 1476.63 355.263 1476.18 355.263C1475.73 355.263 1475.31 355.352 1474.92 355.531Z" fill="#E08B65"/>
</g>
<path d="M1350.12 250.195L1345.54 229.998L1344.2 224.118L1336.37 189.544L1332.55 223.058L1330.25 243.173L1329.53 249.54C1329.04 253.861 1327.9 259.98 1324.45 263.509C1323.05 264.938 1312.63 268.17 1321.65 273.056C1332.88 279.144 1355.17 272.894 1364.19 263.187C1364.12 263.168 1351.6 256.723 1350.12 250.195Z" fill="#FDAD9B"/>
<path d="M1307.96 196.152C1311.98 176.515 1328.25 163.34 1344.29 166.723C1360.34 170.106 1370.09 188.766 1366.07 208.402C1362.05 228.038 1345.78 241.215 1329.74 237.832C1313.69 234.449 1303.94 215.789 1307.96 196.152Z" fill="#FDAD9B"/>
<path d="M1321.28 188.405C1304.31 187.772 1296.83 177.244 1297.31 168.057C1297.92 156.275 1305.99 146.405 1314.16 151.42C1322.34 156.435 1319.48 145.437 1327.73 144.915C1343.16 143.943 1345.22 155.181 1357.68 156.661C1374.11 158.613 1390.86 187.91 1375.55 207.212C1375.55 207.212 1334.68 188.905 1321.28 188.405Z" fill="#66192D"/>
<path d="M1307.08 175.405C1307.08 175.405 1323.86 194.434 1320.75 204.194C1317.64 213.953 1317.96 217.893 1328.12 223.992C1338.3 230.09 1328.34 237.997 1342.36 239.681C1356.39 241.365 1374.86 225.791 1376.89 198.05C1378.02 182.583 1370.01 171.803 1370.01 171.803L1307.08 175.405Z" fill="#66192D"/>
<path d="M1311.66 203.064C1313.92 200.27 1317.75 199.668 1320.21 201.723C1322.67 203.776 1322.83 207.708 1320.57 210.502C1318.3 213.296 1314.47 213.898 1312.01 211.844C1309.55 209.791 1309.39 205.86 1311.66 203.064Z" fill="#FDAD9B"/>
<path d="M1371.98 203.265C1372.03 203.265 1372.09 203.256 1372.14 203.238C1372.36 203.153 1372.48 202.9 1372.4 202.672C1370.93 198.708 1366.93 196.988 1366.76 196.917C1366.53 196.82 1366.28 196.928 1366.18 197.152C1366.09 197.375 1366.19 197.634 1366.42 197.728C1366.45 197.744 1370.24 199.377 1371.57 202.976C1371.64 203.154 1371.81 203.265 1371.98 203.265Z" fill="#66192D"/>
<path d="M1366.29 195.626C1366.32 195.626 1366.35 195.623 1366.38 195.618C1366.43 195.607 1371.58 194.49 1371.77 190.14C1371.78 189.897 1371.59 189.692 1371.35 189.682C1371.11 189.676 1370.9 189.859 1370.89 190.103C1370.73 193.774 1366.25 194.744 1366.2 194.753C1365.96 194.803 1365.81 195.036 1365.86 195.274C1365.9 195.482 1366.09 195.626 1366.29 195.626Z" fill="#66192D"/>
<path d="M1316.98 150.913C1317.45 150.913 1317.91 150.791 1318.34 150.546C1320.72 149.189 1321.55 144.421 1321.58 144.218C1321.63 143.979 1321.46 143.752 1321.22 143.71C1320.98 143.671 1320.76 143.832 1320.72 144.071C1320.71 144.117 1319.92 148.63 1317.9 149.781C1317.37 150.082 1316.81 150.113 1316.18 149.871C1314.94 149.392 1314 148.62 1313.09 147.874C1311.29 146.397 1309.43 144.87 1305.4 145.861C1305.16 145.918 1305.02 146.157 1305.08 146.392C1305.14 146.628 1305.38 146.772 1305.61 146.715C1309.21 145.828 1310.75 147.092 1312.53 148.554C1313.49 149.345 1314.49 150.163 1315.86 150.694C1316.25 150.84 1316.62 150.913 1316.98 150.913Z" fill="#66192D"/>
<path d="M1357.4 155.131C1357.74 155.131 1358.08 155.117 1358.43 155.087C1358.67 155.066 1358.85 154.852 1358.83 154.608C1358.81 154.367 1358.6 154.192 1358.35 154.209C1351.82 154.775 1346.67 149.129 1346.61 149.072C1346.45 148.891 1346.17 148.876 1345.99 149.038C1345.81 149.2 1345.8 149.479 1345.96 149.66C1346.17 149.896 1350.94 155.131 1357.4 155.131Z" fill="#66192D"/>
<path d="M1315.83 213.407C1317.29 213.407 1319.57 212.765 1321.52 209.451C1321.58 209.35 1321.55 209.221 1321.45 209.161C1321.35 209.102 1321.22 209.135 1321.16 209.235C1318.18 214.282 1314.61 212.825 1314.46 212.76C1314.35 212.713 1314.23 212.763 1314.18 212.872C1314.14 212.979 1314.18 213.103 1314.29 213.15C1314.31 213.156 1314.91 213.407 1315.83 213.407Z" fill="#66192D"/>
<path d="M1144.97 256.969C1141.57 248.638 1167.98 234.303 1167.98 234.303C1170.87 233.672 1193.12 285.322 1241.36 289.896C1258.54 291.526 1290.7 273.604 1293.88 270.256C1294.3 269.81 1322.55 296.36 1322.55 296.36C1316.79 302.425 1304.09 323.968 1281.43 332.201C1234.57 349.233 1158.42 312.92 1144.97 256.969Z" fill="#FDAD9B"/>
<path d="M1353.98 816.579C1353.98 816.579 1353.67 829.265 1345.21 832.844C1336.75 836.422 1312.24 839.651 1321.4 847.807C1326.65 852.488 1351.42 849.464 1358.41 849.464C1365.4 849.464 1371.97 852.558 1377.16 847.807C1382.88 842.583 1377.16 816.578 1377.16 816.578C1377.16 816.578 1371.13 819.766 1365.7 819.625C1357.88 819.419 1353.98 816.579 1353.98 816.579Z" fill="#66192D"/>
<path d="M1281.01 433.707C1281.01 433.707 1279.32 490.961 1297.32 600.798C1310.32 680.091 1325.66 759.994 1333.19 798.298C1335.88 812.001 1347.24 822.02 1360.69 822.569L1367.93 822.863C1382.48 823.455 1394.28 810.77 1393.22 795.689L1374.96 536.532L1370.46 451.235L1281.01 433.707Z" fill="#FF443C"/>
<path d="M1434.09 816.579C1434.09 816.579 1433.77 829.265 1425.32 832.844C1416.86 836.422 1392.35 839.651 1401.51 847.807C1406.76 852.488 1431.53 849.464 1438.52 849.464C1445.51 849.464 1452.07 852.558 1457.27 847.807C1462.98 842.583 1457.27 816.578 1457.27 816.578C1457.27 816.578 1451.23 819.766 1445.81 819.625C1437.99 819.419 1434.09 816.579 1434.09 816.579Z" fill="#66192D"/>
<path d="M1361.11 433.707C1361.11 433.707 1359.43 490.961 1377.43 600.798C1390.43 680.091 1405.77 759.994 1413.3 798.298C1415.99 812.001 1427.34 822.02 1440.8 822.569L1448.03 822.863C1462.58 823.455 1474.39 810.77 1473.33 795.689L1455.07 536.532L1450.57 451.235L1361.11 433.707Z" fill="#FF443C"/>
<path d="M1417.12 283.954C1417.12 283.954 1403.24 249.371 1337.43 258.391C1242.52 271.398 1265.45 338.579 1273.38 425.196C1273.38 425.196 1360.14 421.683 1451.28 428.333C1451.28 428.333 1445.31 335.801 1417.12 283.954Z" fill="#FFBA41"/>
<path d="M1453.81 282.446C1453.81 282.446 1442.52 320.168 1412.83 331.26C1384.61 341.801 1285.51 360.052 1264.77 344.897C1237.01 324.606 1251.78 282.446 1251.78 282.446C1251.78 282.446 1270.43 277.114 1314.6 263.209C1318.75 261.897 1323.08 260.751 1327.6 259.797C1335.2 258.202 1342.9 257.406 1350.51 256.998C1420.65 253.247 1453.81 282.446 1453.81 282.446Z" fill="#FFBA41"/>
<path d="M1381.18 625.318C1381.21 625.318 1381.24 625.316 1381.28 625.31C1381.58 625.256 1381.77 624.97 1381.72 624.671C1376.29 594.309 1381.54 569.87 1386.9 554.714C1392.7 538.309 1399.86 528.977 1399.93 528.886C1400.11 528.646 1400.07 528.3 1399.83 528.113C1399.59 527.928 1399.24 527.972 1399.06 528.211C1398.77 528.585 1370.16 566.295 1380.64 624.866C1380.68 625.131 1380.92 625.318 1381.18 625.318Z" fill="#66192D"/>
<path d="M1451.28 428.334C1451.28 428.334 1401.65 389.848 1399.49 340.098C1397.33 290.349 1372.75 296.239 1356.34 297.549C1339.93 298.858 1317.35 297.549 1314.78 311.295C1312.2 325.042 1322.52 360.391 1301.23 392.466C1279.95 424.543 1273.38 425.196 1273.38 425.196L1287.2 528.548L1453.65 509.64L1451.28 428.334Z" fill="#FF443C"/>
<path d="M1376.05 301.04L1377.77 256.891C1377.77 256.891 1369.05 254.184 1363.52 256.665L1364.53 303.67L1376.05 301.04Z" fill="#FF443C"/>
<path d="M1334.77 303.671L1310.45 265.087C1310.45 265.087 1295.55 263.472 1293.88 270.255L1322.54 313.696L1334.77 303.671Z" fill="#FF443C"/>
<path d="M1166.39 191.124C1167.38 191.625 1168.6 191.206 1169.09 190.197L1196.48 134.03C1196.97 133.019 1196.56 131.782 1195.56 131.282C1194.57 130.781 1193.35 131.199 1192.86 132.21L1165.47 188.376C1164.98 189.388 1165.39 190.623 1166.39 191.124Z" fill="#66192D"/>
<path d="M1139.21 246.86C1144.67 249.6 1151.34 247.313 1154.04 241.774L1179.25 190.063C1181.95 184.524 1179.7 177.751 1174.24 175.011C1168.79 172.271 1162.11 174.559 1159.41 180.097L1134.2 231.809C1131.5 237.347 1133.75 244.12 1139.21 246.86Z" fill="#FF8548"/>
<path d="M1143.19 239.02L1142.29 239.665C1140.76 240.765 1138.62 240.396 1137.54 238.842L1125.54 221.664C1124.45 220.111 1124.82 217.94 1126.35 216.84L1127.24 216.196C1128.77 215.095 1130.91 215.465 1131.99 217.018L1144 234.197C1145.08 235.75 1144.72 237.92 1143.19 239.02Z" fill="#FDAD9B"/>
<path d="M1151.4 233.115L1150.61 233.677C1149.05 234.8 1146.87 234.422 1145.76 232.837L1130.14 210.474C1129.03 208.89 1129.4 206.676 1130.97 205.552L1131.75 204.99C1133.31 203.866 1135.49 204.244 1136.6 205.827L1152.22 228.191C1153.33 229.775 1152.96 231.991 1151.4 233.115Z" fill="#FDAD9B"/>
<path d="M1164.6 248.076L1163.2 247.998C1160.57 247.85 1158.54 245.547 1158.68 242.88L1160.1 216.9C1160.25 214.233 1162.51 212.171 1165.14 212.32L1166.55 212.398C1169.18 212.546 1171.21 214.848 1171.06 217.515L1169.64 243.496C1169.5 246.163 1167.23 248.225 1164.6 248.076Z" fill="#FDAD9B"/>
<path d="M1159.27 227.447C1157.49 228.726 1155.01 228.296 1153.75 226.494L1136.23 201.418C1134.97 199.616 1135.4 197.097 1137.17 195.818C1138.95 194.542 1141.43 194.97 1142.69 196.772L1160.21 221.848C1161.47 223.65 1161.05 226.169 1159.27 227.447Z" fill="#FDAD9B"/>
<path d="M1148.26 259.309C1148.26 259.309 1127.64 249.887 1123.79 234.052C1122.46 228.571 1142.75 205.788 1148.22 208.82C1153.69 211.852 1168.4 235.911 1168.4 235.911L1148.26 259.309Z" fill="#FDAD9B"/>
<path d="M1135.12 244.864L1133.98 245.685C1132.52 246.734 1130.48 246.381 1129.45 244.902L1119.79 231.078C1118.76 229.599 1119.11 227.53 1120.56 226.48L1121.7 225.66C1123.16 224.61 1125.2 224.963 1126.24 226.442L1135.89 240.266C1136.93 241.745 1136.58 243.814 1135.12 244.864Z" fill="#FDAD9B"/>
<path d="M257.876 911.094C257.876 911.094 258.218 924.756 267.462 928.61C276.707 932.463 303.492 935.941 293.483 944.725C287.74 949.765 260.674 946.508 253.035 946.508C245.392 946.508 238.218 949.839 232.539 944.724C226.293 939.097 232.541 911.094 232.541 911.094C232.541 911.094 239.134 914.529 245.064 914.375C253.611 914.153 257.876 911.094 257.876 911.094Z" fill="#66192D"/>
<path d="M98.5713 911.497C98.5713 911.497 94.7223 924.61 102.347 931.103C109.972 937.597 134.414 949.092 122.2 954.398C115.192 957.442 90.4163 946.072 83.1403 943.738C75.8633 941.403 68.0163 942.382 64.1713 935.776C59.9423 928.511 74.4473 903.754 74.4473 903.754C74.4473 903.754 79.6773 909.04 85.3703 910.706C93.5743 913.106 98.5713 911.497 98.5713 911.497Z" fill="#66192D"/>
<path d="M261.692 624.831C258.416 623.554 257.19 618.711 258.96 614.035C260.01 611.263 261.935 609.032 264.109 608.064C265.494 607.447 266.887 607.379 268.135 607.863C271.411 609.142 272.636 613.985 270.866 618.66C269.816 621.431 267.892 623.663 265.718 624.631C264.939 624.978 264.16 625.151 263.405 625.151C262.815 625.151 262.24 625.045 261.692 624.831ZM264.797 609.614C263.028 610.401 261.44 612.278 260.546 614.637C259.128 618.381 259.935 622.328 262.309 623.253C263.124 623.572 264.065 623.513 265.03 623.083C266.799 622.296 268.387 620.418 269.28 618.06C270.698 614.315 269.891 610.369 267.517 609.444C267.172 609.31 266.804 609.242 266.422 609.242C265.9 609.242 265.353 609.366 264.797 609.614Z" fill="#E08B65"/>
<path d="M514.738 550.849L523.769 523.141C521.537 521.558 448.559 485.771 393.389 404.556C393.389 404.556 391.235 400.104 372.807 409.594C353.919 419.32 355.339 426.723 355.339 426.723C399.713 512.318 513.462 549.944 514.738 550.849Z" fill="#EAA678"/>
<path d="M326.458 576.573C324.087 602.709 316.888 662.273 310.038 703.466C296.861 782.666 281.304 862.471 273.681 900.73C270.946 914.418 259.438 924.422 245.791 924.964L238.462 925.257C223.717 925.853 211.742 913.187 212.817 898.119L229.982 658.212L231.34 639.282L234.63 577.777C245.969 581.41 209.726 564.509 217.463 572.256L200.836 557.652C200.836 557.652 299.455 546.209 326.458 576.573Z" fill="#553E93"/>
<path d="M265.109 578.092L229.981 658.211L124.105 899.695C118.289 912.966 104.861 921.008 90.7336 919.67L84.5725 919.086C70.0365 917.708 60.4515 903.058 64.7215 888.753C64.7215 888.753 149.137 558.325 153.042 546.526C153.042 546.526 199.242 554.414 231.559 564.771C242.901 568.406 257.371 570.344 265.109 578.092Z" fill="#553E93"/>
<path d="M216.375 357.006C216.375 357.006 240.474 321.699 294.438 333.776C353.861 347.074 357.89 379.315 350.827 441.248C346.353 480.48 332.957 553.845 322.969 609.379C322.969 609.379 270.687 545.947 171.014 487.144C171.014 487.144 193.777 389.733 216.375 357.006Z" fill="#FF8548"/>
<path d="M172.793 479.82C172.793 479.82 182.74 492.624 210.084 479.82C242.449 464.664 307.275 432.047 333.735 434.061C360.197 436.075 395.777 399.744 395.777 399.744C395.777 399.744 361.768 359.755 317.542 341.039C313.388 339.274 309.027 337.659 304.449 336.222C296.761 333.813 288.849 332.42 281.058 331.007C185.517 313.683 172.793 479.82 172.793 479.82Z" fill="#FF8548"/>
<path d="M290.542 338.935C289.256 333.247 293.687 334.435 296.756 330.302L306.253 317.512L309.017 313.789L325.271 291.896L317.675 316.689L313.114 331.569L311.671 336.279C310.691 339.476 311.392 340.226 312.766 343.788C313.323 345.231 315.277 350.957 309.878 351.474C305.034 351.938 292.18 346.186 290.542 338.935Z" fill="#FDAD9B"/>
<path d="M302.824 309.971C302.824 309.971 282.005 292.785 292.147 276.319C302.292 259.853 307.991 300.474 307.991 300.474L305.513 310.131L302.824 309.971Z" fill="#66192D"/>
<path d="M306.319 317.089C306.293 317.23 306.269 317.371 306.252 317.513C305.017 325.782 313.049 331.603 313.049 331.603L313.113 331.57L317.674 316.69C315.176 315.097 311.53 313.215 309.016 313.79C307.702 314.091 306.697 315.061 306.319 317.089Z" fill="#66192D"/>
<path d="M346.899 304.082C350.271 289.262 343.041 274.98 330.751 272.183C318.46 269.387 305.762 279.134 302.391 293.955C299.017 308.775 306.248 323.057 318.538 325.853C330.829 328.65 343.527 318.903 346.899 304.082Z" fill="#FDAD9B"/>
<path d="M306.363 291.567C306.363 291.567 312.89 295.601 317.83 291.452C322.769 287.304 326.198 283.458 338.266 288.444C350.335 293.43 362.912 289.917 364.806 283.207C366.699 276.498 360.793 271.88 353.492 272.722C346.193 273.565 354.783 268.962 349.203 262.444C343.621 255.927 331.204 263.927 324.557 260.97C317.912 258.014 294.885 256.667 292.149 276.318L306.363 291.567Z" fill="#66192D"/>
<path d="M301.765 295.789C303.424 297.972 306.352 298.54 308.303 297.057C310.254 295.574 310.491 292.601 308.832 290.419C307.172 288.235 304.245 287.667 302.293 289.149C300.342 290.633 300.106 293.606 301.765 295.789Z" fill="#FDAD9B"/>
<path d="M351.294 281.604C351.869 281.604 352.419 281.529 352.927 281.363C355.326 280.576 355.935 279.311 355.705 278.386C355.433 277.293 353.907 276.376 351.831 276.735C348.258 277.355 346.224 276.283 346.203 276.272L346.055 276.547C346.142 276.593 348.212 277.678 351.883 277.043C353.787 276.712 355.165 277.507 355.402 278.462C355.598 279.25 355.024 280.347 352.829 281.067C348.289 282.555 339.926 276.108 339.843 276.043L339.652 276.288C339.961 276.529 346.54 281.604 351.294 281.604Z" fill="white"/>
<path d="M329.311 266.831C334.392 266.831 339.126 264.215 339.444 263.796L339.196 263.607C338.94 263.923 331.962 267.933 325.715 266.005C323.662 265.372 321.85 264.581 320.098 263.815C316.569 262.274 313.519 260.942 310.256 261.816L310.336 262.115C313.492 261.272 316.497 262.581 319.973 264.1C321.733 264.868 323.553 265.664 325.623 266.303C326.834 266.677 328.084 266.831 329.311 266.831Z" fill="white"/>
<path d="M297.72 274.605C297.467 274.531 297.2 274.273 297.356 273.471L297.376 273.421C297.476 273.256 299.83 269.394 301.464 270.25C301.666 270.357 301.959 270.64 301.674 271.338C301.149 272.622 298.942 274.629 297.901 274.629C297.836 274.63 297.775 274.622 297.72 274.605ZM297.657 273.558C297.599 273.869 297.583 274.241 297.809 274.308C298.508 274.51 300.862 272.501 301.385 271.22C301.607 270.678 301.39 270.563 301.319 270.526C301.204 270.465 301.083 270.436 300.953 270.436C299.82 270.437 298.241 272.599 297.657 273.558Z" fill="white"/>
<path d="M329.068 299.424C329.204 299.396 329.328 299.305 329.391 299.167C329.499 298.937 329.399 298.661 329.169 298.553C329.033 298.489 326.013 296.716 323.114 299.55C322.932 299.729 322.919 300.018 323.094 300.205C323.269 300.392 323.528 300.356 323.749 300.225C325.95 298.919 328.665 299.341 328.778 299.392C328.872 299.435 328.972 299.445 329.068 299.424Z" fill="#060633"/>
<path d="M325.127 304.295C325.03 305.395 325.598 306.343 326.396 306.414C327.194 306.483 327.92 305.65 328.016 304.55C328.114 303.45 327.545 302.501 326.747 302.432C325.948 302.36 325.224 303.195 325.127 304.295Z" fill="#060633"/>
<path d="M345.596 304.074C345.703 304.093 345.82 304.051 345.911 303.944C346.065 303.766 346.086 303.476 345.959 303.297C345.885 303.191 344.345 300.506 341.35 302.163C341.162 302.267 341.056 302.533 341.116 302.767C341.179 302.999 341.374 303.055 341.572 303.008C343.563 302.54 345.339 303.858 345.404 303.944C345.454 304.017 345.522 304.06 345.596 304.074Z" fill="#060633"/>
<path d="M339.996 307.056C339.486 308.037 339.651 309.13 340.361 309.499C341.072 309.868 342.061 309.373 342.569 308.394C343.078 307.415 342.914 306.32 342.204 305.952C341.493 305.583 340.504 306.077 339.996 307.056Z" fill="#060633"/>
<path d="M326.628 319.59C328.766 319.59 330.348 319.084 330.384 319.072C330.553 319.016 330.645 318.833 330.589 318.665C330.533 318.495 330.35 318.405 330.182 318.458C329.869 318.562 322.485 320.907 318.333 314.702C318.232 314.554 318.033 314.515 317.884 314.613C317.736 314.712 317.697 314.912 317.795 315.062C320.277 318.768 323.903 319.59 326.628 319.59Z" fill="#020202"/>
<path d="M317.192 316.237C317.337 316.237 317.468 316.14 317.505 315.995C317.621 315.541 318.012 314.832 319.21 314.033L319.299 313.972C319.44 313.862 319.466 313.659 319.358 313.518C319.248 313.377 319.049 313.351 318.906 313.459C317.754 314.229 317.091 315.016 316.88 315.835C316.836 316.007 316.94 316.183 317.112 316.227C317.139 316.234 317.167 316.237 317.192 316.237Z" fill="#020202"/>
<path d="M339.182 320.927C335.019 317.382 334.575 308.516 338.195 301.162C340.418 296.644 343.767 293.528 347.151 292.828C349.175 292.41 351.06 292.881 352.603 294.196C356.767 297.741 357.209 306.607 353.589 313.961C351.365 318.479 348.016 321.595 344.632 322.295C344.155 322.393 343.683 322.443 343.223 322.443C341.737 322.443 340.36 321.93 339.182 320.927ZM347.346 293.769C344.249 294.409 341.151 297.332 339.055 301.587C335.618 308.57 335.954 316.919 339.803 320.196C341.112 321.311 342.716 321.711 344.438 321.355C347.533 320.715 350.632 317.791 352.727 313.536C356.165 306.553 355.83 298.205 351.979 294.927C350.98 294.077 349.811 293.641 348.547 293.641C348.156 293.641 347.753 293.685 347.346 293.769Z" fill="white"/>
<g opacity="0.3">
<path d="M314.272 292.432C311.434 299.69 312.961 308.167 317.68 311.368C322.401 314.569 328.529 311.279 331.366 304.021C334.204 296.763 332.677 288.284 327.958 285.083C323.237 281.885 317.11 285.174 314.272 292.432Z" fill="white"/>
</g>
<g opacity="0.3">
<path d="M337.899 301.753C335.053 309.046 336.11 317.574 340.263 320.802C344.415 324.031 350.09 320.737 352.937 313.445C355.785 306.153 354.727 297.625 350.574 294.397C346.422 291.168 340.746 294.461 337.899 301.753Z" fill="white"/>
</g>
<path d="M317.846 311.547C312.636 308.075 310.895 298.945 313.966 291.193C315.752 286.685 318.794 283.469 322.308 282.37C324.735 281.612 327.129 281.951 329.231 283.352C334.441 286.823 336.182 295.953 333.113 303.705C331.326 308.214 328.286 311.429 324.77 312.528C323.928 312.792 323.089 312.923 322.265 312.923C320.717 312.923 319.219 312.461 317.846 311.547ZM322.595 283.288C319.405 284.285 316.514 287.372 314.86 291.548C311.946 298.901 313.526 307.514 318.379 310.747C320.233 311.982 322.343 312.281 324.484 311.612C327.673 310.614 330.564 307.527 332.218 303.352C335.131 295.998 333.552 287.385 328.698 284.152C327.489 283.347 326.168 282.94 324.804 282.94C324.077 282.939 323.338 283.054 322.595 283.288Z" fill="white"/>
<path d="M338.621 304.721C338.834 304.721 339.049 304.646 339.22 304.492C339.585 304.161 339.618 303.599 339.29 303.232C339.184 303.113 336.674 300.333 331.682 300.565C331.188 300.587 330.804 301.007 330.829 301.501C330.851 301.996 331.279 302.383 331.766 302.355C335.821 302.181 337.872 304.336 337.956 304.429C338.133 304.622 338.377 304.721 338.621 304.721Z" fill="white"/>
<path d="M291.966 276.49L292.335 276.146C289.525 273.131 291.816 269.653 291.839 269.619L291.42 269.336C291.393 269.375 288.883 273.186 291.966 276.49Z" fill="#66192D"/>
<path d="M287.594 280.633C287.624 280.611 290.522 278.454 292.698 278.759L292.767 278.257C290.391 277.935 287.416 280.135 287.29 280.229L287.594 280.633Z" fill="#66192D"/>
<path d="M201.82 414.465C206.447 418.982 220.332 412.574 232.832 400.153C245.333 387.735 251.716 374.005 247.09 369.489C242.462 364.973 228.577 371.381 216.076 383.801C203.575 396.222 197.192 409.95 201.82 414.465Z" fill="#66192D"/>
<path d="M526.052 538.072C527.48 536.533 529.906 536.441 531.446 537.868L551.653 556.607C553.192 558.034 553.284 560.461 551.857 561.999C550.43 563.539 548.002 563.631 546.464 562.203L526.256 543.464C524.718 542.038 524.625 539.611 526.052 538.072Z" fill="#EAA678"/>
<path d="M519.409 545.235C520.836 543.697 523.263 543.605 524.801 545.032L550.998 569.324C552.538 570.751 552.63 573.178 551.203 574.717C549.776 576.256 547.348 576.348 545.81 574.921L519.613 550.629C518.072 549.202 517.982 546.776 519.409 545.235Z" fill="#EAA678"/>
<path d="M503.709 534.262L505.053 534.057C507.562 533.674 509.928 535.414 510.31 537.924L514.029 562.369C514.411 564.878 512.67 567.243 510.16 567.624L508.818 567.827C506.308 568.208 503.943 566.466 503.561 563.957L499.843 539.517C499.461 537.009 501.201 534.644 503.709 534.262Z" fill="#EAA678"/>
<path d="M512.759 552.395C514.186 550.855 516.612 550.763 518.151 552.19L539.569 572.051C541.108 573.478 541.2 575.905 539.773 577.444C538.346 578.982 535.919 579.075 534.38 577.647L512.962 557.787C511.423 556.36 511.332 553.933 512.759 552.395Z" fill="#EAA678"/>
<path d="M516.945 520.588C516.945 520.588 538.247 525.276 544.963 539.244C547.287 544.077 532.564 569.277 526.812 567.536C521.061 565.795 502.49 546.326 502.49 546.326L516.945 520.588Z" fill="#EAA678"/>
<path d="M532.531 531.029L532.712 530.832C534.086 529.35 536.423 529.262 537.906 530.637L554.227 545.77C555.709 547.145 555.799 549.483 554.424 550.965L554.241 551.161C552.868 552.643 550.531 552.732 549.049 551.356L532.727 536.222C531.244 534.848 531.155 532.511 532.531 531.029Z" fill="#EAA678"/>
<path d="M394.159 524.743L408.958 524.161C408.951 523.985 408.319 505.856 412.591 487.628C417.795 465.431 427.467 453.411 441.341 451.9C453.107 450.619 461.633 454.671 467.424 464.282C472.175 472.167 473.181 480.845 473.19 480.932L487.92 479.38C487.827 478.491 485.492 457.506 470.394 445.309C462.094 438.602 451.781 435.865 439.739 437.177C391.475 442.426 394.026 521.385 394.159 524.743Z" fill="#FF443C"/>
<path d="M488.785 477.916C489.159 479.536 485.778 481.7 481.233 482.751C476.687 483.802 472.699 483.341 472.325 481.722C471.95 480.105 475.332 477.939 479.877 476.888C484.422 475.837 488.41 476.298 488.785 477.916Z" fill="#66192D"/>
<path d="M372.698 542.781L381.569 577.74C382.806 582.615 387.133 586.074 392.161 586.205L602.087 591.69C607.055 591.82 611.517 588.671 613.058 583.947L627.818 538.724C630.145 531.596 624.965 524.233 617.47 524.014L393.004 517.451C379.503 517.057 369.376 529.69 372.698 542.781Z" fill="#FFBA41"/>
<path d="M622.077 954.392H382.823C371.405 954.392 362.046 945.337 361.667 933.926L350.839 607.544C350.436 595.367 360.368 585.363 372.547 585.682L629.001 592.385C640.636 592.689 649.843 602.33 649.612 613.966L643.24 933.647C643.011 945.171 633.601 954.392 622.077 954.392Z" fill="#786AB5"/>
<path d="M376.744 911.341L367.411 629.997C367.234 624.663 369.207 619.64 372.968 615.852C376.728 612.064 381.708 610.046 387.073 610.195L608.139 615.972C618.642 616.246 627.015 625.015 626.807 635.519L621.315 911.088C621.108 921.448 612.509 929.877 602.146 929.877H395.905C385.506 929.878 377.089 921.735 376.744 911.341ZM374.283 617.156C370.885 620.577 369.101 625.117 369.261 629.935L378.595 911.28C378.907 920.67 386.51 928.027 395.906 928.027H602.147C611.509 928.027 619.278 920.412 619.465 911.051L624.957 635.482C625.145 625.993 617.58 618.07 608.092 617.823L387.025 612.046C386.867 612.042 386.712 612.04 386.556 612.04C381.913 612.04 377.569 613.845 374.283 617.156Z" fill="#66192D"/>
<path d="M501.044 615.035L499.193 615.08L506.727 927.602L508.578 927.557L501.044 615.035Z" fill="#66192D"/>
<path d="M321.439 622.207C321.439 622.207 355.608 465.316 355.729 448.653C355.85 431.99 362.013 408.134 321.439 400.621C280.866 393.108 267.29 389.38 259.884 408.216C252.478 427.052 235.753 468.305 203.434 468.105C171.115 467.904 164.403 490.001 164.403 490.001L136.002 611.114L321.439 622.207Z" fill="#553E93"/>
<path d="M230.785 658.512L240.953 634.101C247.391 618.766 251.656 611.363 265.478 604.843L264.74 603.279C250.437 610.024 245.824 618.023 239.355 633.434L229.186 657.848L230.785 658.512Z" fill="#020202"/>
<path d="M385.146 504.793L374.364 543.197C291.577 500.642 228.214 431.942 214.45 414.519C212.424 411.956 211.767 408.594 212.648 405.451C213.995 400.652 216.96 393.296 223.392 386.21C229.655 379.31 234.873 374.843 238.383 372.176C240.95 370.225 244.595 370.635 246.629 373.14C261.509 391.462 313.647 468.039 385.146 504.793Z" fill="#FDAD9B"/>
<path d="M397.661 559.442L433.877 504.753C433.877 504.753 446.771 505.788 453.176 492.878C459.579 479.97 449.114 482.419 443.86 486.71C438.606 491.003 432.092 488.296 431.641 482.906C431.19 477.518 435.439 468.27 428.311 468.106C421.185 467.941 413.549 483.519 421.458 496.26L386.136 549.597C386.136 549.597 356.114 545.436 355.729 571.979C355.729 571.979 361.423 580.036 365.304 572.96C369.187 565.884 375.667 557.313 384.302 564.103C392.936 570.892 393.006 573.618 390.047 578.895C387.089 584.171 379.531 588.3 384.195 591.779C388.858 595.257 393.877 594.561 398.438 586.863C402.999 579.167 404.296 564.531 397.661 559.442Z" fill="#66192D"/>
<path d="M388.214 535.17L387.64 535.971C386.354 537.761 386.769 540.276 388.557 541.561L408.77 556.068C410.559 557.353 413.073 556.939 414.358 555.15L414.934 554.349C416.219 552.559 415.805 550.044 414.016 548.76L393.803 534.252C392.013 532.967 389.5 533.38 388.214 535.17Z" fill="#FDAD9B"/>
<path d="M394.969 525.754L394.31 526.673C393.048 528.431 393.454 530.901 395.211 532.161L418.458 548.848C420.216 550.109 422.686 549.704 423.946 547.947L424.607 547.028C425.868 545.271 425.462 542.801 423.705 541.54L400.458 524.852C398.701 523.592 396.231 523.997 394.969 525.754Z" fill="#FDAD9B"/>
<path d="M378.307 510.931L378.359 512.006C378.515 515.138 381.204 517.573 384.337 517.417L416.851 515.806C419.982 515.651 422.417 512.962 422.263 509.829L422.21 508.754C422.054 505.623 419.366 503.188 416.233 503.342L383.718 504.953C380.586 505.11 378.151 507.8 378.307 510.931Z" fill="#FDAD9B"/>
<path d="M401.642 516.458L401.067 517.26C399.782 519.05 400.196 521.564 401.985 522.848L422.465 537.549C424.254 538.834 426.769 538.419 428.053 536.631L428.628 535.83C429.914 534.04 429.5 531.525 427.711 530.24L407.231 515.54C405.442 514.255 402.927 514.668 401.642 516.458Z" fill="#FDAD9B"/>
<path d="M365.608 529.168C365.608 529.168 376.025 552.671 393.733 557.148C399.863 558.698 425.511 535.776 422.151 529.542C418.791 523.307 391.942 506.428 391.942 506.428L365.608 529.168Z" fill="#FDAD9B"/>
<path d="M381.689 544.212L380.782 545.476C379.593 547.134 379.975 549.464 381.634 550.655L396.318 561.196C397.977 562.386 400.308 562.003 401.499 560.344L402.405 559.082C403.595 557.424 403.212 555.093 401.554 553.903L386.868 543.362C385.21 542.172 382.879 542.555 381.689 544.212Z" fill="#FDAD9B"/>
<path d="M326.572 342.194C326.572 342.194 341.987 393.571 341.282 414.4L328.656 412.087C328.656 412.087 319.271 351.453 317.543 341.038C317.543 341.038 325.32 337.896 326.572 342.194Z" fill="#553E93"/>
<path d="M286.653 401.21C286.884 399.821 293.492 356.752 284.286 332C284.286 332 280.172 327.699 275.543 329.74C275.543 329.74 286.19 380.611 276.7 401.21H284.286H286.653Z" fill="#553E93"/>
<path d="M330.741 415.905C330.741 415.905 326.806 412.308 328.252 409.478C329.7 406.647 332.13 405.954 334.444 406.879C336.759 407.804 337.019 411.631 336.253 413.479C335.483 415.326 332.129 417.48 330.741 415.905Z" fill="#66192D"/>
<path d="M277.626 403.513C277.626 403.513 279.519 399.589 282.354 398.817C285.187 398.045 287.502 400.496 287.193 403.513C286.884 406.531 285.075 407.793 282.354 407.625C279.633 407.458 277.01 405.896 277.626 403.513Z" fill="#66192D"/>
<path d="M1175.53 531.38L1168.99 589.015C1168.34 594.775 1163.53 599.121 1157.82 599.121H981.116C975.167 599.121 970.247 594.418 969.893 588.39L966.375 528.525C965.987 521.914 971.205 516.358 977.73 516.436L1164.49 518.664C1171.16 518.743 1176.29 524.658 1175.53 531.38Z" fill="#FFBA41"/>
<path d="M1107.97 508.841L1117.59 506.093L1112.53 488.356C1110.15 480.012 1102.48 474.183 1093.89 474.183H1046.5C1036.82 474.183 1028.56 481.501 1027.28 491.205L1025.22 506.814L1035.15 508.121L1037.2 492.513C1037.83 487.771 1041.83 484.194 1046.5 484.194H1093.89C1098.04 484.194 1101.74 487.036 1102.9 491.104L1107.97 508.841Z" fill="#66192D"/>
<path d="M1188.55 514.183V521.18C1188.55 527.205 1183.77 532.111 1177.84 532.188L968.427 534.88C962.383 534.956 957.443 530.006 957.443 523.871V516.467C957.443 510.433 962.228 505.524 968.173 505.458L1177.58 503.174C1183.62 503.109 1188.55 508.056 1188.55 514.183Z" fill="#FF443C"/>
<path d="M830.171 619.256C893.493 656.948 969.065 652.887 1021.32 642.833L1013.26 602.47C950.543 614.521 906.422 602.746 866.104 579.817C850.891 571.153 804.064 603.709 830.171 619.256Z" fill="#FDAD9B"/>
<path d="M1230.57 965.131C1201.22 980.694 1011.12 970.97 940.825 966.774C926.118 965.896 914.616 953.572 914.561 938.619C914.316 872.527 914.121 700.744 914.049 630.597C914.032 613.557 927.413 599.625 944.199 599.211C1007.56 597.647 1152.77 594.531 1203.19 593.698C1213 593.536 1221.11 601.419 1221.38 611.377C1223.38 685.555 1257.61 950.788 1230.57 965.131Z" fill="#FF8548"/>
<path d="M1092.76 632.198C1094.15 626.302 1099.81 621.22 1105.79 621.22C1111.76 621.22 1118.29 622.933 1118.29 633.911C1118.29 639.975 1111.76 643.176 1105.79 643.176C1099.81 643.176 1090.82 640.405 1092.76 632.198Z" fill="#C8C1E1"/>
<path d="M1051.16 632.198C1052.55 626.302 1058.21 621.22 1064.19 621.22C1070.16 621.22 1076.69 622.933 1076.69 633.911C1076.69 639.975 1070.16 643.176 1064.19 643.176C1058.21 643.176 1049.22 640.405 1051.16 632.198Z" fill="#C8C1E1"/>
<path d="M1010.53 632.198C1011.92 626.302 1017.58 621.22 1023.55 621.22C1029.53 621.22 1036.06 622.933 1036.06 633.911C1036.06 639.975 1029.53 643.176 1023.55 643.176C1017.58 643.176 1008.59 640.405 1010.53 632.198Z" fill="#C8C1E1"/>
<path d="M973.118 632.198C974.508 626.302 980.17 621.22 986.144 621.22C992.118 621.22 998.65 622.933 998.65 633.911C998.65 639.975 992.119 643.176 986.144 643.176C980.17 643.176 971.183 640.405 973.118 632.198Z" fill="#C8C1E1"/>
<path d="M1148.06 612.272L1191.03 613.956C1194.91 614.108 1198.04 617.218 1198.28 621.151L1199.66 643.99C1199.94 648.631 1196.12 652.457 1191.55 652.107L1147.2 648.719C1143.26 648.418 1140.21 645.083 1140.21 641.071V619.935C1140.21 615.583 1143.77 612.104 1148.06 612.272Z" fill="#66192D"/>
<path d="M949.651 799.843C949.651 734.332 1002.33 674.36 1066.52 681.224C1146.13 689.735 1183.4 734.331 1183.4 799.843C1183.4 865.354 1131.07 918.463 1066.52 918.463C1001.98 918.463 949.651 865.355 949.651 799.843Z" fill="#66192D"/>
<path d="M941.268 799.843C943.599 729.783 982.041 677.715 1066.52 672.714C1165.9 666.83 1191.78 729.744 1191.78 799.843C1191.78 889.371 1135.59 926.972 1066.52 926.972C997.456 926.972 938.184 892.426 941.268 799.843ZM966.133 793.145C966.133 853.859 996.262 899.844 1066.52 909.952C1125.75 918.472 1169.94 871.487 1169.94 810.773C1169.94 750.058 1136.34 683.814 1066.52 689.737C1006.7 689.736 966.133 732.43 966.133 793.145Z" fill="#C8C1E1"/>
<path d="M975.164 841.118H958.036V762.992H980.351C989.139 762.992 996.262 770.116 996.262 778.903V820.019C996.262 831.671 986.816 841.118 975.164 841.118Z" fill="#C8C1E1"/>
<path d="M897.413 960.514C897.413 960.514 897.785 975.529 907.796 979.764C917.807 984.001 946.811 987.822 935.974 997.476C929.755 1003.02 900.446 999.437 892.171 999.437C883.896 999.437 876.126 1003.1 869.977 997.476C863.212 991.292 869.977 960.514 869.977 960.514C869.977 960.514 877.118 964.289 883.54 964.121C892.793 963.876 897.413 960.514 897.413 960.514Z" fill="#66192D"/>
<path d="M572.272 947.441C572.272 947.441 557.477 947.774 553.275 957.922C549.073 968.07 545.225 997.499 535.744 986.471C530.304 980.142 533.914 950.406 533.938 942.008C533.961 933.609 530.377 925.712 535.932 919.488C542.044 912.639 572.35 919.593 572.35 919.593C572.35 919.593 568.611 926.83 568.758 933.348C568.973 942.743 572.272 947.441 572.272 947.441Z" fill="#66192D"/>
<path d="M877.595 971.797C859.828 967.81 848.905 949.595 853.614 931.757C855.511 924.571 857.516 916.604 859.436 908.29C862.227 896.204 863.928 886.003 865.658 877.593C873.691 838.554 745.123 831.33 745.123 810.495L751.893 767.179L745.134 810.497L758.65 723.859C760.146 724.099 902.657 762.991 931.117 792.75C949.999 812.494 962.019 847.102 939.851 912.936C935.108 927.024 930.558 940.313 926.763 951.321C921.009 968.012 903.871 977.696 886.859 973.876L877.595 971.797Z" fill="#553E93"/>
<path d="M576.855 968.367C566.927 964.505 558.487 957.942 560.102 947.276L562.875 928.965C564.365 919.122 572.14 911.495 581.883 910.331C615.981 906.257 694.512 918.171 703.633 907.661C710.024 900.298 686.865 847.102 683.209 779.11C682.434 764.702 681.065 751.774 680.69 740.149C679.433 701.204 785.297 702.862 793.928 752.292C807.156 828.043 810.696 950.19 783.608 983.959C755.806 1018.62 633.197 990.284 576.855 968.367Z" fill="#553E93"/>
<path d="M711.392 558.847C711.392 558.847 726.844 529.106 793.486 542.724C813.511 546.816 822.432 558.076 832.378 565.18C847.776 576.177 848.859 584.961 842.729 601.758C828.878 639.706 811.15 695.172 849.924 752.536C849.924 752.536 688.534 797.173 684.928 739.468C684.928 739.468 661.709 640.181 711.392 558.847Z" fill="#FF8548"/>
<path d="M678.415 585.203L726.898 579.548C726.898 579.548 807.22 619.437 833.244 621.045C859.268 622.654 880.138 581.708 880.138 581.708C880.138 581.708 856.328 556.178 803.435 544.809C795.672 543.14 787.961 541.321 780.223 540.373C674.286 527.377 678.415 585.203 678.415 585.203Z" fill="#FF8548"/>
<path d="M786.014 532.54L794.386 517.13L796.823 512.643L811.151 486.265L806.585 514.532L803.843 531.499L802.976 536.87C802.386 540.514 802.888 543.648 804.893 547.342C805.704 548.839 809.076 557.158 800.593 559.016C790.024 561.332 775.933 549.432 770.8 539.376C770.855 539.375 782.64 539.813 786.014 532.54Z" fill="#FDAD9B"/>
<path d="M678.414 585.203C678.776 586.565 680.452 587.521 683.134 588.071C689.584 589.407 701.838 588.411 715.408 585.099C725.843 582.546 734.925 579.142 740.833 575.83C745.799 573.041 748.521 570.318 747.965 568.197C747.386 565.985 743.348 564.845 737.194 564.754C730.409 564.649 721.057 565.84 710.97 568.302C697.078 571.692 685.611 576.588 680.787 580.805C678.942 582.402 678.078 583.921 678.414 585.203Z" fill="#66192D"/>
<path d="M835.435 480.317C835.435 480.317 835.802 487.504 832.311 495.69C828.818 503.875 824.521 481.06 824.521 481.06L835.435 480.317Z" fill="#66192D"/>
<path d="M832.828 498.37C834.049 481.387 823.79 466.785 809.913 465.757C796.036 464.729 783.797 477.662 782.574 494.645C781.352 511.628 791.61 526.23 805.489 527.258C819.365 528.287 831.605 515.353 832.828 498.37Z" fill="#FDAD9B"/>
<path d="M783.716 485.871L795.916 487.115C798.598 487.388 801.29 486.459 803.171 484.498C806.406 481.124 809.758 479.744 820.814 482.502C834.811 485.994 845.862 479.407 848.908 472.234C852.018 464.914 845.852 458.218 838.026 460.381C830.199 462.544 835.058 454.24 828.437 451.863C816.064 447.424 811.655 456.886 801.295 454.379C787.712 451.093 761.086 456.509 767.734 483.361L783.716 485.871Z" fill="#66192D"/>
<path d="M809.258 495.514C809.402 495.459 809.52 495.338 809.567 495.175C809.647 494.902 809.493 494.613 809.222 494.533C809.062 494.484 805.475 493.029 802.78 496.657C802.611 496.885 802.646 497.209 802.868 497.385C803.09 497.562 803.366 497.48 803.585 497.296C805.772 495.479 808.802 495.489 808.934 495.528C809.044 495.559 809.157 495.553 809.258 495.514Z" fill="#060633"/>
<path d="M805.764 501.573C805.841 502.807 806.618 503.762 807.501 503.706C808.385 503.649 809.037 502.604 808.961 501.369C808.885 500.134 808.108 499.179 807.225 499.235C806.342 499.293 805.688 500.338 805.764 501.573Z" fill="#060633"/>
<path d="M828.067 497.882C828.187 497.886 828.308 497.818 828.39 497.685C828.527 497.46 828.503 497.136 828.334 496.958C828.235 496.853 826.111 494.139 823.116 496.479C822.927 496.625 822.856 496.938 822.961 497.186C823.067 497.433 823.289 497.463 823.498 497.377C825.594 496.522 827.75 497.683 827.832 497.77C827.902 497.842 827.984 497.879 828.067 497.882Z" fill="#060633"/>
<path d="M822.448 502.13C822.056 503.301 822.417 504.484 823.253 504.773C824.091 505.062 825.087 504.347 825.479 503.177C825.872 502.005 825.51 500.822 824.674 500.533C823.837 500.243 822.84 500.958 822.448 502.13Z" fill="#060633"/>
<path d="M767.733 483.361C767.733 483.361 772.308 503.153 783.736 506.926C783.736 506.926 777.076 491.18 798.715 486.963C798.715 486.963 781.006 480.209 767.733 483.361Z" fill="#66192D"/>
<path d="M782.195 496.782C784.369 498.921 787.657 499.058 789.54 497.087C791.423 495.115 791.188 491.784 789.015 489.646C786.843 487.506 783.553 487.37 781.67 489.341C779.787 491.312 780.022 494.644 782.195 496.782Z" fill="#FDAD9B"/>
<path d="M798.714 486.964C798.714 486.964 794.037 501.789 796.494 505.291C798.952 508.793 818.775 514.23 828.889 512.517C827.067 522.286 818.558 529.465 808.769 529.098C805.531 528.976 802.293 528.302 799.193 527.058C792.871 524.522 787.055 520.433 785.606 513.693C785.165 511.642 789.908 500.584 789.908 500.584C789.908 500.584 792.185 493.989 789.015 489.647C789.015 489.647 794.336 486.49 798.714 486.964Z" fill="#66192D"/>
<path d="M822.834 516.949C822.834 516.949 814.714 517.451 806.477 514.865C806.477 514.865 806.105 523.023 814.928 523.229C820.06 523.35 822.834 516.949 822.834 516.949Z" fill="white"/>
<path d="M836.956 458.908L837.076 458.226C833.789 457.645 834.053 454.943 834.065 454.829L833.378 454.752C833.373 454.786 833.038 458.215 836.956 458.908Z" fill="#66192D"/>
<path d="M825.626 479.323C825.666 479.32 829.739 478.981 834.037 477.675C839.76 475.934 843.287 473.271 844.234 469.975C844.898 467.664 844.807 466.008 843.957 464.91C842.62 463.18 839.7 463.256 837.124 463.325C836.74 463.334 836.365 463.344 836.007 463.347L836.011 463.693C836.372 463.691 836.748 463.681 837.133 463.67C839.628 463.605 842.452 463.532 843.683 465.122C844.461 466.128 844.532 467.683 843.901 469.88C841.685 477.594 825.758 478.966 825.598 478.98L825.626 479.323Z" fill="white"/>
<path d="M805.281 457.864C807.999 457.864 810.272 457.456 812.025 456.964C816.015 455.846 818.184 454.117 818.274 454.042L818.056 453.773C818.035 453.79 815.84 455.538 811.914 456.635C808.293 457.647 802.411 458.296 794.971 455.643L794.855 455.969C798.795 457.374 802.305 457.864 805.281 457.864Z" fill="white"/>
<path d="M803.153 839.203C803.158 839.203 803.163 839.203 803.17 839.202C803.528 839.192 803.812 838.894 803.802 838.534L802.747 802.091C803.793 794.754 810.951 790.475 811.024 790.432C811.333 790.251 811.437 789.853 811.255 789.542C811.075 789.234 810.678 789.13 810.368 789.31C810.049 789.496 802.557 793.962 801.452 801.966C801.446 802.002 801.445 802.038 801.447 802.074L802.502 838.572C802.511 838.924 802.801 839.203 803.153 839.203Z" fill="#66192D"/>
<path d="M837.017 606.836C837.017 606.836 785.079 588.422 770.799 601.758C756.52 615.093 741.453 656.753 713.191 661.78C684.929 666.807 674.39 671.684 674.39 671.684C674.39 671.684 674.173 784.494 692.127 843.806L806.131 780.707L864.208 757.851C864.208 757.851 841.44 740.307 839.719 720.358C838 700.41 856.317 612.488 837.017 606.836Z" fill="#553E93"/>
<path d="M898.31 682.67C898.31 682.67 914.173 669.857 925.868 671.907C937.564 673.957 950.974 685.55 943.459 685.841C935.944 686.133 926.24 683.813 926.24 683.813C926.24 683.813 946.743 689.759 943.296 694.023C939.85 698.286 922.069 692.941 922.069 692.941C922.069 692.941 945.909 701.99 941.368 704.948C936.827 707.907 918.764 700.903 918.764 700.903C918.764 700.903 940.614 710.221 935.261 713.532C929.906 716.843 917.253 705.713 913.806 709.977C910.36 714.24 895.248 729.997 882.399 721.721L898.31 682.67Z" fill="#FDAD9B"/>
<path d="M926.055 684.213L926.424 683.412C926.189 683.303 920.589 680.762 917.254 682.823L917.719 683.574C920.657 681.753 926.001 684.187 926.055 684.213Z" fill="#DD8964"/>
<path d="M921.875 693.339L922.26 692.545C922.033 692.434 916.651 689.874 911.463 691.795L911.768 692.623C916.61 690.834 921.823 693.313 921.875 693.339Z" fill="#DD8964"/>
<path d="M918.578 701.304L918.949 700.503C918.67 700.372 912.058 697.354 908.686 699.86L909.211 700.567C912.164 698.374 918.513 701.274 918.578 701.304Z" fill="#DD8964"/>
<path d="M680.789 580.806C681.331 582.717 682.092 585.165 683.135 588.071C687.727 600.823 697.736 622.333 718.285 644.89C768.128 699.589 841.615 717.93 894.501 723.678L898.306 682.675C834.842 675.762 795.978 651.516 763.936 617.711C751.85 604.946 744.521 587.05 740.833 575.831C738.768 569.599 737.827 565.422 737.814 565.343C737.814 565.343 737.608 565.121 737.195 564.756C730.41 564.651 721.057 565.842 710.97 568.304C697.079 571.693 685.613 576.589 680.789 580.806Z" fill="#FDAD9B"/>
<g opacity="0.5">
<path d="M765.576 670.287C760.715 665.868 759.177 659.713 762.072 656.273C763.143 655.003 764.696 654.265 766.565 654.139C769.605 653.94 773.13 655.384 776.02 658.011C780.881 662.429 782.419 668.585 779.524 672.025C778.453 673.296 776.9 674.033 775.03 674.158C774.843 674.17 774.654 674.177 774.463 674.177C771.565 674.178 768.288 672.752 765.576 670.287ZM766.71 656.302C765.826 656.361 764.591 656.646 763.73 657.669C761.658 660.129 763.171 665.174 767.033 668.684C769.495 670.923 772.427 672.155 774.885 671.997C775.77 671.938 777.004 671.653 777.866 670.63C779.938 668.171 778.425 663.126 774.563 659.615C772.246 657.508 769.509 656.287 767.149 656.287C767.001 656.288 766.854 656.293 766.71 656.302Z" fill="#E08B65"/>
</g>
<path d="M818.167 548.528C818.167 548.528 837.193 582.581 835.446 614.002L823.965 613.402C823.965 613.402 820.603 566.274 808.208 545.89C808.208 545.89 813.705 544.151 818.167 548.528Z" fill="#553E93"/>
<path d="M783.223 601.758C783.607 600.038 776.834 552.183 762.323 538.47C762.323 538.47 755.551 535.828 752.326 538.476C752.326 538.476 771.21 581.054 770.797 604.946L783.223 601.758Z" fill="#553E93"/>
<path d="M833.243 609.365C833.243 606.925 831.295 604.946 828.889 604.946C826.485 604.946 825.088 606.99 824.536 609.365C823.778 612.629 826.484 613.784 828.889 613.784C831.295 613.784 833.243 611.805 833.243 609.365Z" fill="#66192D"/>
<path d="M783.239 603.473C783.239 601.034 781.29 599.055 778.885 599.055C776.481 599.055 775.083 601.098 774.532 603.473C773.775 606.738 776.481 607.892 778.885 607.892C781.289 607.892 783.239 605.914 783.239 603.473Z" fill="#66192D"/>
<path d="M1290.33 939.798L1283.79 997.433C1283.14 1003.19 1278.33 1007.54 1272.62 1007.54H1095.91C1089.96 1007.54 1085.05 1002.84 1084.69 996.808L1081.17 936.943C1080.78 930.332 1086 924.776 1092.53 924.853L1279.29 927.081C1285.95 927.163 1291.09 933.077 1290.33 939.798Z" fill="#FFBA41"/>
<path d="M1222.77 917.26L1232.39 914.511L1227.33 896.774C1224.95 888.43 1217.28 882.602 1208.69 882.602H1161.3C1151.62 882.602 1143.35 889.919 1142.07 899.624L1140.02 915.233L1149.94 916.54L1152 900.932C1152.62 896.189 1156.62 892.612 1161.3 892.612H1208.69C1212.83 892.612 1216.54 895.454 1217.7 899.523L1222.77 917.26Z" fill="#66192D"/>
<path d="M1303.34 922.6V929.598C1303.34 935.624 1298.57 940.529 1292.63 940.606L1083.22 943.298C1077.18 943.375 1072.24 938.424 1072.24 932.29V924.884C1072.24 918.852 1077.02 913.942 1082.97 913.878L1292.38 911.593C1298.42 911.526 1303.34 916.475 1303.34 922.6Z" fill="#FF443C"/>
</svg>
